<?xml version="1.0" encoding="UTF-8"?>
<!DOCTYPE svg PUBLIC "-//W3C//DTD SVG 1.1//EN" "http://www.w3.org/Graphics/SVG/1.1/DTD/svg11.dtd">
<!-- Creator: CorelDRAW X5 -->
<svg xmlns="http://www.w3.org/2000/svg" xml:space="preserve" width="105.052mm" height="37.214mm" style="shape-rendering:geometricPrecision; text-rendering:geometricPrecision; image-rendering:optimizeQuality; fill-rule:evenodd; clip-rule:evenodd"
viewBox="0 0 10498 3719"
 xmlns:xlink="http://www.w3.org/1999/xlink">
 <defs>
  <style type="text/css">
   <![CDATA[
    .str0 {stroke:#373435;stroke-width:19.9864}
    .fil0 {fill:#201E1E}
    .fil1 {fill:#FEFEFE}
    .fil3 {fill:#201E1E;fill-rule:nonzero}
    .fil2 {fill:#FEFEFE;fill-rule:nonzero}
   ]]>
  </style>
 </defs>
 <g id="Capa_x0020_1">
  <metadata id="CorelCorpID_0Corel-Layer"/>
  <g id="_456891616">
   <polygon class="fil0" points="0,0 4277,0 4277,3719 0,3719 "/>
   <path class="fil1" d="M2127 1196c683,0 1279,375 1592,931 -313,555 -909,931 -1592,931 -683,0 -1279,-375 -1592,-931 313,-555 909,-931 1592,-931z"/>
   <path class="fil2" d="M563 1567c-37,48 -106,56 -154,18 -48,-37 -56,-106 -18,-154 198,-253 460,-461 764,-604 292,-138 623,-215 972,-215 350,0 680,78 972,215 304,143 566,351 764,604 37,48 29,117 -18,154 -48,37 -117,29 -154,-18 -178,-227 -413,-413 -685,-541 -263,-124 -562,-194 -879,-194 -317,0 -616,70 -879,194 -273,128 -507,315 -685,541z"/>
   <path class="fil0 str0" d="M2127 1432c74,0 146,12 213,33l-213 661 655 -231c26,72 40,150 40,231 0,383 -311,694 -694,694 -383,0 -694,-311 -694,-694 0,-383 311,-694 694,-694z"/>
   <path class="fil3" d="M2127 1413c197,0 375,80 504,209 129,129 209,307 209,504 0,197 -80,375 -209,504 -129,129 -307,209 -504,209 -197,0 -375,-80 -504,-209 -129,-129 -209,-307 -209,-504 0,-197 80,-375 209,-504 129,-129 307,-209 504,-209zm473 240c-121,-121 -289,-196 -473,-196 -185,0 -352,75 -473,196 -121,121 -196,289 -196,473 0,185 75,352 196,473 121,121 289,196 473,196 185,0 352,-75 473,-196 121,-121 196,-289 196,-473 0,-185 -75,-352 -196,-473z"/>
   <path class="fil2" d="M5876 21l0 290 -24 0c-18,-76 -52,-134 -101,-174 -49,-40 -105,-60 -168,-60 -52,0 -100,15 -144,45 -44,30 -76,69 -96,118 -26,62 -39,131 -39,207 0,75 9,143 28,205 19,62 48,108 89,140 40,32 93,47 157,47 53,0 101,-11 145,-35 44,-23 90,-63 139,-119l0 72c-47,49 -96,85 -147,106 -51,22 -110,33 -178,33 -89,0 -169,-18 -238,-54 -69,-36 -123,-87 -161,-154 -38,-67 -56,-139 -56,-214 0,-80 21,-156 63,-227 42,-72 98,-127 169,-167 71,-40 146,-59 226,-59 59,0 121,13 187,38 38,15 62,22 72,22 13,0 24,-5 34,-15 10,-10 16,-25 19,-46l24 0zm867 562l-31 294 -743 0 0 -23 28 0c24,0 44,-4 59,-13 11,-6 19,-16 25,-30 4,-10 7,-36 7,-78l0 -551c0,-43 -2,-70 -7,-80 -5,-11 -14,-20 -28,-28 -14,-8 -32,-12 -56,-12l-28 0 0 -23 447 0 0 23 -36 0c-24,0 -44,4 -59,13 -11,6 -19,16 -25,30 -4,10 -7,36 -7,78l0 533c0,43 3,70 7,82 5,12 15,21 29,26 10,4 35,5 75,5l70 0c44,0 82,-8 111,-23 29,-16 55,-40 77,-74 22,-34 42,-83 62,-149l25 0zm508 271l0 23 -438 0 0 -23 28 0c24,0 44,-4 59,-13 11,-6 19,-16 25,-30 5,-10 7,-36 7,-78l0 -551c0,-43 -2,-70 -7,-80 -4,-11 -13,-20 -27,-28 -14,-8 -32,-12 -56,-12l-28 0 0 -23 438 0 0 23 -28 0c-24,0 -44,4 -59,13 -11,6 -19,16 -25,30 -4,10 -7,36 -7,78l0 551c0,43 2,70 7,80 5,11 14,20 28,28 14,8 32,12 56,12l28 0zm344 -815l413 519 0 -360c0,-50 -7,-84 -21,-102 -20,-24 -53,-35 -99,-35l0 -23 276 0 0 23c-35,4 -59,10 -71,17 -12,7 -22,19 -28,35 -7,16 -10,44 -10,84l0 697 -21 0 -566 -697 0 532c0,48 11,81 33,97 22,17 47,25 75,25l20 0 0 23 -297 0 0 -23c46,0 78,-10 96,-28 18,-19 27,-50 27,-94l0 -591 -18 -22c-18,-22 -33,-37 -47,-44 -13,-7 -33,-11 -59,-12l0 -23 297 0zm1061 815l0 23 -438 0 0 -23 28 0c24,0 44,-4 59,-13 11,-6 19,-16 25,-30 5,-10 7,-36 7,-78l0 -551c0,-43 -2,-70 -7,-80 -4,-11 -13,-20 -27,-28 -14,-8 -32,-12 -56,-12l-28 0 0 -23 438 0 0 23 -28 0c-24,0 -44,4 -59,13 -11,6 -19,16 -25,30 -4,10 -7,36 -7,78l0 551c0,43 2,70 7,80 5,11 14,20 28,28 14,8 32,12 56,12l28 0zm873 -833l0 290 -24 0c-18,-76 -52,-134 -101,-174 -49,-40 -105,-60 -168,-60 -52,0 -100,15 -144,45 -44,30 -76,69 -96,118 -26,62 -39,131 -39,207 0,75 9,143 28,205 19,62 48,108 89,140 40,32 93,47 157,47 53,0 101,-11 145,-35 44,-23 90,-63 139,-119l0 72c-47,49 -96,85 -147,106 -51,22 -110,33 -178,33 -89,0 -169,-18 -238,-54 -69,-36 -123,-87 -161,-154 -38,-67 -56,-139 -56,-214 0,-80 21,-156 63,-227 42,-72 98,-127 169,-167 71,-40 146,-59 226,-59 59,0 121,13 187,38 38,15 62,22 72,22 13,0 24,-5 34,-15 10,-10 16,-25 19,-46l24 0zm595 618l-296 0 -35 82c-12,27 -17,50 -17,67 0,24 9,41 28,52 11,7 38,12 82,15l0 23 -278 0 0 -23c30,-5 55,-17 74,-38 19,-20 43,-62 72,-126l299 -668 12 0 302 687c29,65 52,106 71,123 14,13 34,20 59,22l0 23 -405 0 0 -23 17 0c32,0 55,-5 68,-14 9,-7 14,-16 14,-28 0,-7 -1,-15 -4,-23 -1,-4 -7,-19 -19,-46l-44 -104zm-21 -46l-125 -288 -129 288 253 0zm-5055 1684l0 -23 28 0c24,0 43,-4 56,-12 13,-8 23,-18 29,-31 4,-9 6,-35 6,-78l0 -551c0,-43 -2,-70 -7,-80 -4,-11 -13,-20 -27,-28 -14,-8 -32,-12 -56,-12l-28 0 0 -23 375 0c100,0 181,14 242,41 74,33 131,84 169,151 39,68 58,144 58,229 0,59 -9,113 -28,163 -19,50 -43,91 -73,123 -30,32 -65,58 -104,78 -39,19 -87,35 -144,45 -25,5 -65,7 -119,7l-375 0zm319 -790l0 653c0,35 2,56 5,63 3,8 9,14 17,18 11,6 27,9 48,9 69,0 121,-23 157,-70 49,-63 74,-162 74,-295 0,-107 -17,-193 -51,-258 -27,-50 -61,-84 -103,-102 -30,-13 -79,-19 -148,-19zm922 1l0 341 17 0c53,0 91,-17 115,-50 24,-33 39,-83 46,-148l23 0 0 438 -23 0c-5,-48 -15,-87 -31,-117 -16,-31 -34,-51 -55,-62 -21,-10 -51,-16 -91,-16l0 236c0,46 2,74 6,85 4,10 11,19 22,25 11,7 28,10 52,10l50 0c78,0 141,-18 188,-54 47,-36 81,-91 102,-165l23 0 -38 266 -724 0 0 -23 28 0c24,0 44,-4 59,-13 11,-6 19,-16 25,-30 5,-10 7,-36 7,-78l0 -551c0,-38 -1,-61 -3,-70 -4,-14 -12,-26 -23,-33 -16,-12 -37,-17 -64,-17l-28 0 0 -23 701 0 0 248 -23 0c-12,-60 -29,-104 -50,-130 -21,-26 -52,-46 -92,-58 -23,-8 -66,-11 -130,-11l-86 0zm1303 -60c133,-5 242,34 325,117 83,83 125,186 125,311 0,106 -31,200 -93,280 -82,107 -199,161 -349,161 -150,0 -267,-51 -349,-153 -65,-81 -98,-176 -98,-287 0,-124 42,-228 127,-311 85,-83 189,-122 312,-117zm8 39c-77,0 -135,39 -175,117 -32,64 -49,156 -49,276 0,143 25,248 75,317 35,48 84,72 147,72 42,0 78,-10 106,-31 36,-26 64,-68 85,-126 20,-58 30,-133 30,-226 0,-111 -10,-194 -31,-248 -21,-55 -47,-94 -79,-117 -32,-23 -68,-34 -110,-34zm667 -5l0 -23 445 0 0 23 -27 0c-25,0 -44,4 -59,13 -10,6 -19,16 -25,30 -5,10 -7,36 -7,78l0 410c0,80 -8,139 -24,175 -16,36 -44,67 -86,91 -41,24 -90,37 -148,37 -70,0 -127,-19 -171,-56 -44,-37 -65,-78 -65,-123 0,-29 9,-52 27,-70 18,-18 39,-27 65,-27 25,0 46,8 63,24 17,16 26,36 26,59 0,11 -1,21 -4,30 -1,4 -8,15 -19,31 -11,17 -17,28 -17,36 0,11 5,20 16,28 16,12 36,17 61,17 18,0 32,-5 44,-14 11,-9 20,-23 24,-42 5,-19 7,-72 7,-160l0 -448c0,-43 -2,-70 -7,-80 -5,-11 -14,-20 -28,-28 -14,-8 -32,-12 -56,-12l-35 0zm941 -35c133,-5 242,34 325,117 83,83 125,186 125,311 0,106 -31,200 -93,280 -82,107 -199,161 -349,161 -150,0 -267,-51 -349,-153 -65,-81 -98,-176 -98,-287 0,-124 42,-228 127,-311 85,-83 189,-122 312,-117zm8 39c-77,0 -135,39 -175,117 -32,64 -49,156 -49,276 0,143 25,248 75,317 35,48 84,72 147,72 42,0 78,-10 106,-31 36,-26 64,-68 85,-126 20,-58 30,-133 30,-226 0,-111 -10,-194 -31,-248 -21,-55 -47,-94 -79,-117 -32,-23 -68,-34 -110,-34zm1082 -47l7 279 -26 0c-12,-70 -41,-126 -88,-169 -47,-43 -97,-64 -152,-64 -42,0 -75,11 -100,34 -25,22 -37,48 -37,78 0,18 4,35 13,49 12,19 31,39 57,57 19,14 64,38 134,72 98,48 164,94 198,137 34,43 51,92 51,147 0,70 -27,130 -82,181 -55,50 -124,76 -208,76 -26,0 -51,-3 -75,-8 -23,-5 -53,-16 -88,-30 -20,-8 -36,-12 -49,-12 -11,0 -22,4 -34,12 -12,8 -22,21 -29,38l-23 0 0 -316 23 0c18,89 53,157 105,203 52,47 107,70 167,70 46,0 83,-13 110,-38 27,-25 41,-54 41,-88 0,-20 -5,-39 -16,-58 -11,-18 -26,-36 -48,-53 -21,-17 -59,-38 -114,-65 -76,-38 -131,-69 -164,-96 -34,-26 -59,-56 -77,-88 -18,-32 -27,-68 -27,-107 0,-67 25,-123 74,-170 49,-47 111,-70 185,-70 27,0 54,3 79,10 19,5 43,14 71,28 28,13 47,20 58,20 11,0 19,-3 25,-10 6,-7 12,-22 17,-47l19 0zm-4468 1419l0 227 -22 0c-13,-52 -28,-90 -44,-113 -16,-23 -38,-41 -66,-55 -16,-8 -43,-11 -82,-11l-62 0 0 646c0,43 2,70 7,80 5,11 14,20 28,28 14,8 33,12 56,12l28 0 0 23 -438 0 0 -23 28 0c24,0 44,-4 59,-13 11,-6 19,-16 25,-30 5,-10 7,-36 7,-78l0 -646 -61 0c-56,0 -97,12 -123,36 -36,33 -58,81 -68,143l-23 0 0 -227 752 0zm478 599l-296 0 -35 82c-12,27 -17,50 -17,67 0,24 9,41 28,52 11,7 38,12 82,15l0 23 -278 0 0 -23c30,-5 55,-17 74,-38 19,-20 43,-62 72,-126l299 -668 12 0 302 687c29,65 52,106 71,123 14,13 34,20 59,22l0 23 -405 0 0 -23 17 0c32,0 55,-5 68,-14 9,-7 14,-16 14,-28 0,-7 -1,-15 -4,-23 -1,-4 -7,-19 -19,-46l-44 -104zm-21 -46l-125 -288 -129 288 253 0zm723 -553l413 519 0 -360c0,-50 -7,-84 -21,-102 -20,-24 -53,-35 -99,-35l0 -23 276 0 0 23c-35,4 -59,10 -71,17 -12,7 -22,19 -28,35 -7,16 -10,44 -10,84l0 697 -21 0 -566 -697 0 532c0,48 11,81 33,97 22,17 47,25 75,25l20 0 0 23 -297 0 0 -23c46,0 78,-10 96,-28 18,-19 27,-50 27,-94l0 -591 -18 -22c-18,-22 -33,-37 -47,-44 -13,-7 -33,-11 -59,-12l0 -23 297 0zm615 837l0 -23 28 0c24,0 43,-4 56,-12 13,-8 23,-18 29,-31 4,-9 6,-35 6,-78l0 -551c0,-43 -2,-70 -7,-80 -4,-11 -13,-20 -27,-28 -14,-8 -32,-12 -56,-12l-28 0 0 -23 375 0c100,0 181,14 242,41 74,33 131,84 169,151 39,68 58,144 58,229 0,59 -9,113 -28,163 -19,50 -43,91 -73,123 -30,32 -65,58 -104,78 -39,19 -87,35 -144,45 -25,5 -65,7 -119,7l-375 0zm319 -790l0 653c0,35 2,56 5,63 3,8 9,14 17,18 11,6 27,9 48,9 69,0 121,-23 157,-70 49,-63 74,-162 74,-295 0,-107 -17,-193 -51,-258 -27,-50 -61,-84 -103,-102 -30,-13 -79,-19 -148,-19zm1040 767l0 23 -438 0 0 -23 28 0c24,0 44,-4 59,-13 11,-6 19,-16 25,-30 5,-10 7,-36 7,-78l0 -551c0,-43 -2,-70 -7,-80 -4,-11 -13,-20 -27,-28 -14,-8 -32,-12 -56,-12l-28 0 0 -23 438 0 0 23 -28 0c-24,0 -44,4 -59,13 -11,6 -19,16 -25,30 -4,10 -7,36 -7,78l0 551c0,43 2,70 7,80 5,11 14,20 28,28 14,8 32,12 56,12l28 0zm827 -271l-31 294 -743 0 0 -23 28 0c24,0 44,-4 59,-13 11,-6 19,-16 25,-30 4,-10 7,-36 7,-78l0 -551c0,-43 -2,-70 -7,-80 -5,-11 -14,-20 -28,-28 -14,-8 -32,-12 -56,-12l-28 0 0 -23 447 0 0 23 -36 0c-24,0 -44,4 -59,13 -11,6 -19,16 -25,30 -4,10 -7,36 -7,78l0 533c0,43 3,70 7,82 5,12 15,21 29,26 10,4 35,5 75,5l70 0c44,0 82,-8 111,-23 29,-16 55,-40 77,-74 22,-34 42,-83 62,-149l25 0z"/>
  </g>
 </g>
</svg>
